<svg width="160" height="48" viewBox="0 0 322 129" fill="none" xmlns="http://www.w3.org/2000/svg">
<g clip-path="url(#clip0_27720_72305)">
<g clip-path="url(#clip1_27720_72305)">
<path d="M26.8845 19.86C4.96453 53.62 11.2045 100.82 44.6445 126.26C45.2845 126.9 45.6045 127.7 45.2845 128.18C44.9645 128.66 44.0045 128.66 43.3645 128.02C27.4976 115.463 17.0243 97.3203 14.0845 77.3C11.0445 57.14 15.5245 36.66 26.8845 19.86ZM28.6445 114.9C24.0045 118.9 14.7245 115.54 10.0845 106.26C15.6845 103.54 23.2045 107.86 28.6445 114.9ZM33.6045 93.94C36.6445 100.18 36.6445 108.02 32.0045 112.18C26.5645 105.14 28.1645 96.5 33.6045 93.94ZM20.0045 100.98C14.7245 104.18 6.40453 99.06 3.68453 89.14C9.60453 87.7 16.0045 93.3 20.0045 100.98ZM29.1245 81.78C30.8845 88.5 29.2845 96.18 23.8445 99.06H23.6845C19.8445 91.22 23.2045 83.22 29.1245 81.78ZM14.4045 86.1C8.48453 88.02 1.44453 81.46 0.644531 71.22C6.72453 70.9 12.0045 77.78 14.4045 86.1ZM27.0445 69.14C27.5245 76.02 24.3245 83.06 18.4045 84.98V84.82C16.1645 76.5 20.8045 69.46 27.0445 69.14ZM1.12453 52.98C7.20453 54.1 11.0445 61.78 11.6845 70.26C5.60453 71.06 -0.155469 63.22 1.12453 52.98ZM27.3645 56.34C26.4045 63.22 22.0845 69.3 16.0045 70.1L15.8445 69.94C15.3645 61.46 21.2845 55.38 27.3645 56.34ZM30.0845 43.86C28.0045 50.42 22.4045 55.54 16.3245 54.9C17.2845 46.42 24.3245 41.62 30.0845 43.86ZM4.96453 35.22C10.5645 37.46 12.9645 45.62 12.1645 53.94L12.0045 54.42H11.8445C5.92453 53.62 1.92453 45.3 4.80453 35.7L4.96453 35.22ZM35.2045 31.86C31.6845 37.94 25.4445 41.94 19.5245 40.18C22.0845 32.02 29.9245 28.5 35.2045 31.86ZM12.3245 18.42C17.4445 21.78 18.0845 30.58 15.5245 38.9C9.60453 37.14 7.04453 27.54 12.3245 18.42ZM42.7245 20.98C37.9245 26.42 30.8845 29.14 25.4445 26.26C29.7645 18.58 38.4045 16.66 42.7245 20.98ZM22.8845 3.06C27.3645 7.54 26.0845 16.5 21.7645 24.02C16.4845 21.14 15.8445 11.22 22.8845 3.06ZM45.2845 0.5C42.4045 8.02 36.3245 13.94 28.9645 16.82C28.9645 9.14 37.2845 0.66 45.2845 0.5Z" fill="#00AA45"/>
</g>
<path d="M63.3582 46.833V27.4391H66.8714V43.8879H75.4131V46.833H63.3582ZM81.6821 46.833H77.9321L84.7597 27.4391H89.0968L95.934 46.833H92.184L87.004 31.4163H86.8525L81.6821 46.833ZM81.8052 39.2288H92.0324V42.0508H81.8052V39.2288ZM110.714 27.4391H114.227V40.1095C114.227 41.4984 113.899 42.72 113.242 43.7743C112.592 44.8286 111.677 45.6525 110.496 46.2459C109.315 46.833 107.936 47.1266 106.358 47.1266C104.773 47.1266 103.391 46.833 102.21 46.2459C101.029 45.6525 100.114 44.8286 99.4638 43.7743C98.8135 42.72 98.4884 41.4984 98.4884 40.1095V27.4391H102.002V39.816C102.002 40.624 102.178 41.3437 102.532 41.9751C102.892 42.6064 103.397 43.1019 104.047 43.4618C104.697 43.8153 105.468 43.9921 106.358 43.9921C107.248 43.9921 108.018 43.8153 108.668 43.4618C109.325 43.1019 109.83 42.6064 110.183 41.9751C110.537 41.3437 110.714 40.624 110.714 39.816V27.4391ZM133.983 27.4391V46.833H130.858L121.72 33.6228H121.559V46.833H118.046V27.4391H121.19L130.318 40.6588H130.489V27.4391H133.983ZM154.412 33.9826H150.87C150.769 33.4018 150.583 32.8873 150.311 32.4391C150.04 31.9845 149.702 31.5994 149.298 31.2838C148.894 30.9681 148.433 30.7314 147.915 30.5735C147.404 30.4094 146.852 30.3273 146.258 30.3273C145.204 30.3273 144.27 30.5925 143.455 31.1228C142.641 31.6468 142.003 32.417 141.542 33.4334C141.082 34.4435 140.851 35.6777 140.851 37.136C140.851 38.6196 141.082 39.8696 141.542 40.886C142.01 41.8961 142.647 42.66 143.455 43.1777C144.27 43.6891 145.201 43.9447 146.249 43.9447C146.83 43.9447 147.373 43.869 147.878 43.7175C148.389 43.5596 148.847 43.3292 149.251 43.0262C149.661 42.7232 150.005 42.3507 150.283 41.9088C150.567 41.4668 150.763 40.9618 150.87 40.3936L154.412 40.4126C154.279 41.3343 153.992 42.1992 153.55 43.0073C153.114 43.8153 152.543 44.5287 151.836 45.1474C151.129 45.7598 150.302 46.2396 149.355 46.5868C148.408 46.9277 147.357 47.0982 146.201 47.0982C144.497 47.0982 142.975 46.7036 141.637 45.9144C140.299 45.1253 139.244 43.9858 138.474 42.4959C137.704 41.006 137.319 39.2194 137.319 37.136C137.319 35.0464 137.707 33.2598 138.484 31.7762C139.26 30.2863 140.318 29.1468 141.656 28.3576C142.994 27.5685 144.51 27.1739 146.201 27.1739C147.281 27.1739 148.285 27.3254 149.213 27.6285C150.141 27.9315 150.968 28.3766 151.694 28.9637C152.42 29.5445 153.016 30.2579 153.484 31.1038C153.957 31.9435 154.266 32.9031 154.412 33.9826ZM157.629 46.833V27.4391H161.142V35.6493H170.129V27.4391H173.652V46.833H170.129V38.5944H161.142V46.833H157.629ZM177.473 46.833V27.4391H190.086V30.3841H180.986V35.6493H189.433V38.5944H180.986V43.8879H190.162V46.833H177.473ZM200.243 46.833H193.671V27.4391H200.375C202.301 27.4391 203.955 27.8273 205.337 28.6038C206.726 29.374 207.793 30.482 208.538 31.9277C209.283 33.3734 209.656 35.1032 209.656 37.1171C209.656 39.1373 209.28 40.8734 208.529 42.3254C207.784 43.7775 206.707 44.8917 205.299 45.6682C203.898 46.4448 202.212 46.833 200.243 46.833ZM197.184 43.7932H200.072C201.423 43.7932 202.55 43.547 203.453 43.0546C204.356 42.5559 205.034 41.8141 205.489 40.8292C205.943 39.8381 206.171 38.6007 206.171 37.1171C206.171 35.6335 205.943 34.4025 205.489 33.4239C205.034 32.4391 204.362 31.7036 203.472 31.2175C202.588 30.7251 201.49 30.4788 200.176 30.4788H197.184V43.7932ZM236.938 37.136C236.938 39.2257 236.546 41.0155 235.763 42.5054C234.987 43.9889 233.926 45.1253 232.582 45.9144C231.243 46.7036 229.725 47.0982 228.027 47.0982C226.329 47.0982 224.807 46.7036 223.462 45.9144C222.124 45.119 221.063 43.9795 220.281 42.4959C219.504 41.006 219.116 39.2194 219.116 37.136C219.116 35.0464 219.504 33.2598 220.281 31.7762C221.063 30.2863 222.124 29.1468 223.462 28.3576C224.807 27.5685 226.329 27.1739 228.027 27.1739C229.725 27.1739 231.243 27.5685 232.582 28.3576C233.926 29.1468 234.987 30.2863 235.763 31.7762C236.546 33.2598 236.938 35.0464 236.938 37.136ZM233.406 37.136C233.406 35.6651 233.175 34.4245 232.714 33.4144C232.26 32.398 231.628 31.631 230.82 31.1133C230.012 30.5893 229.081 30.3273 228.027 30.3273C226.972 30.3273 226.041 30.5893 225.233 31.1133C224.425 31.631 223.791 32.398 223.33 33.4144C222.875 34.4245 222.648 35.6651 222.648 37.136C222.648 38.607 222.875 39.8507 223.33 40.8671C223.791 41.8772 224.425 42.6442 225.233 43.1682C226.041 43.6859 226.972 43.9447 228.027 43.9447C229.081 43.9447 230.012 43.6859 230.82 43.1682C231.628 42.6442 232.26 41.8772 232.714 40.8671C233.175 39.8507 233.406 38.607 233.406 37.136ZM256.197 27.4391V46.833H253.072L243.933 33.6228H243.772V46.833H240.259V27.4391H243.403L252.532 40.6588H252.702V27.4391H256.197Z" fill="#64748B"/>
<path d="M96.2672 79.0126C96.2672 81.4582 95.637 83.5746 94.3765 85.3618C93.1349 87.149 91.3665 88.5317 89.0714 89.5099C86.7951 90.4882 84.1049 90.9773 81.0009 90.9773C78.9315 90.9773 77.0408 90.761 75.3289 90.3283C73.617 89.8956 72.1214 89.2842 70.8421 88.494L71.2372 85.9826C71.9144 86.4529 72.6481 86.848 73.4383 87.1678C74.2284 87.4688 75.0655 87.7039 75.9497 87.8732C76.8339 88.0237 77.7557 88.099 78.7151 88.099C80.4459 88.099 81.9885 87.7416 83.343 87.0267C84.6975 86.3118 85.7604 85.2583 86.5317 83.8662C87.303 82.4741 87.6887 80.7809 87.6887 78.7868C87.6887 76.4729 87.2278 74.4694 86.306 72.7762C85.403 71.0831 84.1237 69.7662 82.4682 68.8256C80.8127 67.885 78.8656 67.4147 76.627 67.4147H74.3977V99.4147C74.3977 99.8286 74.5106 100.186 74.7363 100.487C74.9621 100.769 75.3195 100.948 75.8086 101.023L78.2637 101.362C78.734 101.456 79.0726 101.616 79.2795 101.841C79.4865 102.067 79.5899 102.396 79.5899 102.829C79.5899 103.224 79.4488 103.544 79.1666 103.789C78.9033 104.014 78.48 104.127 77.8968 104.127H63.1667C62.5835 104.127 62.1508 104.014 61.8686 103.789C61.5864 103.544 61.4453 103.224 61.4453 102.829C61.4453 102.114 61.8404 101.635 62.6305 101.39L64.2672 101.023C64.7187 100.891 65.0573 100.694 65.2831 100.431C65.5276 100.167 65.6499 99.8286 65.6499 99.4147V69.3336C65.6499 68.9197 65.5276 68.5811 65.2831 68.3177C65.0573 68.0543 64.7187 67.8568 64.2672 67.7251L62.6305 67.3583C61.8404 67.1137 61.4453 66.634 61.4453 65.9191C61.4453 65.5052 61.5864 65.1854 61.8686 64.9597C62.1508 64.7339 62.5835 64.621 63.1667 64.621H76.8527C80.9538 64.621 84.4529 65.2419 87.3501 66.4835C90.2472 67.7063 92.4576 69.4088 93.9815 71.5911C95.5053 73.7545 96.2672 76.2283 96.2672 79.0126Z" fill="#0D0D0D"/>
<path d="M123.517 87.45C123.517 88.447 123.235 89.2183 122.67 89.7639C122.106 90.2906 121.278 90.554 120.187 90.554H102.578V88.4094H114.12C115.079 88.4094 115.559 87.9767 115.559 87.1113C115.559 84.6281 115.108 82.7468 114.205 81.4676C113.302 80.1695 112.088 79.5205 110.564 79.5205C109.398 79.5205 108.363 79.8779 107.46 80.5928C106.557 81.3077 105.852 82.333 105.344 83.6687C104.836 84.9855 104.582 86.5846 104.582 88.4658C104.582 92.0966 105.429 94.8244 107.122 96.6493C108.834 98.4741 111.11 99.3865 113.951 99.3865C115.606 99.3865 117.055 99.0572 118.296 98.3988C119.557 97.7404 120.535 96.7997 121.231 95.5769C121.57 95.2007 121.833 94.9467 122.021 94.815C122.228 94.6833 122.435 94.6175 122.642 94.6175C122.943 94.6175 123.159 94.7586 123.291 95.0408C123.423 95.3042 123.489 95.624 123.489 96.0002C123.413 97.5805 122.849 99.0478 121.795 100.402C120.742 101.738 119.322 102.81 117.534 103.619C115.747 104.428 113.697 104.833 111.383 104.833C108.655 104.833 106.237 104.278 104.13 103.168C102.023 102.039 100.368 100.468 99.164 98.4552C97.9788 96.4235 97.3862 94.0531 97.3862 91.3441C97.3862 88.5035 97.9506 85.9826 99.0793 83.7815C100.227 81.5805 101.864 79.8591 103.989 78.6175C106.115 77.3759 108.655 76.7551 111.608 76.7551C114.129 76.7551 116.274 77.216 118.042 78.1378C119.829 79.0408 121.184 80.3012 122.106 81.9191C123.046 83.5182 123.517 85.3618 123.517 87.45Z" fill="#0D0D0D"/>
<path d="M152.481 87.45C152.481 88.447 152.198 89.2183 151.634 89.7639C151.07 90.2906 150.242 90.554 149.151 90.554H131.542V88.4094H143.084C144.043 88.4094 144.523 87.9767 144.523 87.1113C144.523 84.6281 144.071 82.7468 143.168 81.4676C142.265 80.1695 141.052 79.5205 139.528 79.5205C138.362 79.5205 137.327 79.8779 136.424 80.5928C135.521 81.3077 134.816 82.333 134.308 83.6687C133.8 84.9855 133.546 86.5846 133.546 88.4658C133.546 92.0966 134.392 94.8244 136.086 96.6493C137.797 98.4741 140.074 99.3865 142.914 99.3865C144.57 99.3865 146.018 99.0572 147.26 98.3988C148.521 97.7404 149.499 96.7997 150.195 95.5769C150.533 95.2007 150.797 94.9467 150.985 94.815C151.192 94.6833 151.399 94.6175 151.606 94.6175C151.907 94.6175 152.123 94.7586 152.255 95.0408C152.386 95.3042 152.452 95.624 152.452 96.0002C152.377 97.5805 151.813 99.0478 150.759 100.402C149.706 101.738 148.285 102.81 146.498 103.619C144.711 104.428 142.66 104.833 140.347 104.833C137.619 104.833 135.201 104.278 133.094 103.168C130.987 102.039 129.332 100.468 128.128 98.4552C126.943 96.4235 126.35 94.0531 126.35 91.3441C126.35 88.5035 126.914 85.9826 128.043 83.7815C129.191 81.5805 130.827 79.8591 132.953 78.6175C135.079 77.3759 137.619 76.7551 140.572 76.7551C143.093 76.7551 145.238 77.216 147.006 78.1378C148.793 79.0408 150.148 80.3012 151.07 81.9191C152.01 83.5182 152.481 85.3618 152.481 87.45Z" fill="#0D0D0D"/>
<path d="M165.642 89.1713C165.642 86.4435 166.028 84.1578 166.799 82.3142C167.57 80.4705 168.586 79.0878 169.847 78.166C171.107 77.2254 172.461 76.7551 173.91 76.7551C175.697 76.7551 177.08 77.263 178.058 78.2789C179.036 79.2948 179.526 80.7527 179.526 82.6528C179.526 84.3459 179.177 85.6063 178.481 86.4341C177.785 87.2618 176.882 87.6757 175.772 87.6757C174.644 87.6757 173.788 87.3747 173.205 86.7727C172.621 86.1707 172.33 85.3336 172.33 84.2612V83.2454C172.311 82.6434 172.17 82.2013 171.906 81.9191C171.643 81.6181 171.21 81.4676 170.608 81.4676C169.95 81.4676 169.31 81.7404 168.69 82.2859C168.088 82.8315 167.589 83.6592 167.194 84.7692C166.818 85.8791 166.63 87.2995 166.63 89.0302L165.642 89.1713ZM166.178 78.7022L166.63 85.1078V99.584C166.63 100.13 166.733 100.534 166.94 100.797C167.166 101.042 167.561 101.211 168.125 101.305L170.552 101.672C170.985 101.747 171.304 101.889 171.511 102.095C171.737 102.302 171.85 102.585 171.85 102.942C171.85 103.318 171.709 103.61 171.427 103.817C171.163 104.024 170.778 104.127 170.27 104.127H157.092C156.565 104.127 156.179 104.024 155.935 103.817C155.69 103.61 155.568 103.328 155.568 102.97C155.568 102.688 155.653 102.453 155.822 102.265C155.991 102.058 156.255 101.889 156.612 101.757L157.712 101.475C158.051 101.362 158.296 101.174 158.446 100.91C158.615 100.628 158.7 100.195 158.7 99.6122V83.4993C158.7 83.0102 158.625 82.6622 158.474 82.4552C158.343 82.2483 158.117 82.1166 157.797 82.0602L156.302 81.9473C155.963 81.8721 155.718 81.7498 155.568 81.5805C155.417 81.4112 155.342 81.1948 155.342 80.9314C155.342 80.6116 155.436 80.3577 155.624 80.1695C155.812 79.9814 156.151 79.7933 156.64 79.6052L161.776 77.7427C162.698 77.3853 163.375 77.1595 163.808 77.0655C164.24 76.9526 164.579 76.8962 164.824 76.8962C165.237 76.8962 165.548 77.0373 165.755 77.3194C165.962 77.5828 166.103 78.0437 166.178 78.7022Z" fill="#0D0D0D"/>
<path d="M192.535 63.972V99.6122C192.535 100.195 192.61 100.628 192.761 100.91C192.93 101.174 193.184 101.362 193.523 101.475L194.595 101.757C194.953 101.87 195.216 102.03 195.385 102.237C195.555 102.425 195.639 102.669 195.639 102.97C195.639 103.328 195.517 103.61 195.272 103.817C195.028 104.024 194.633 104.127 194.087 104.127H182.969C182.442 104.127 182.057 104.024 181.812 103.817C181.568 103.61 181.445 103.328 181.445 102.97C181.445 102.688 181.53 102.453 181.699 102.265C181.869 102.058 182.132 101.889 182.489 101.757L183.59 101.475C183.929 101.343 184.173 101.145 184.324 100.882C184.493 100.619 184.578 100.195 184.578 99.6122V68.7127C184.578 68.2424 184.502 67.9038 184.352 67.6969C184.22 67.4899 183.994 67.3583 183.675 67.3018L182.179 67.1889C181.84 67.0949 181.596 66.9632 181.445 66.7939C181.295 66.6246 181.22 66.4082 181.22 66.1449C181.22 65.8439 181.314 65.5993 181.502 65.4112C181.69 65.223 182.028 65.0349 182.518 64.8468L187.766 62.9279C188.519 62.6457 189.111 62.4482 189.544 62.3353C189.977 62.2225 190.353 62.166 190.673 62.166C191.294 62.166 191.755 62.3353 192.055 62.674C192.375 62.9938 192.535 63.4265 192.535 63.972Z" fill="#0D0D0D"/>
<path d="M209.429 78.6739V99.6122C209.429 100.195 209.504 100.628 209.655 100.91C209.824 101.174 210.078 101.362 210.417 101.475L211.489 101.757C211.846 101.87 212.11 102.03 212.279 102.237C212.448 102.425 212.533 102.669 212.533 102.97C212.533 103.328 212.411 103.61 212.166 103.817C211.922 104.024 211.527 104.127 210.981 104.127H199.863C199.336 104.127 198.95 104.024 198.706 103.817C198.461 103.61 198.339 103.328 198.339 102.97C198.339 102.688 198.424 102.453 198.593 102.265C198.762 102.058 199.026 101.889 199.383 101.757L200.484 101.475C200.822 101.343 201.067 101.145 201.217 100.882C201.387 100.619 201.471 100.195 201.471 99.6122V83.4429C201.471 82.9538 201.396 82.6057 201.246 82.3988C201.114 82.1919 200.888 82.0602 200.568 82.0038L199.073 81.8909C198.734 81.8156 198.49 81.6933 198.339 81.524C198.189 81.3547 198.113 81.1384 198.113 80.875C198.113 80.5552 198.198 80.3012 198.367 80.1131C198.555 79.925 198.903 79.7369 199.411 79.5487L204.66 77.6299C205.394 77.3665 205.977 77.1784 206.41 77.0655C206.861 76.9526 207.237 76.8962 207.538 76.8962C208.178 76.8962 208.648 77.0655 208.949 77.4041C209.269 77.7239 209.429 78.1472 209.429 78.6739ZM204.829 72.5787C203.324 72.5787 202.111 72.1931 201.189 71.4217C200.286 70.6316 199.835 69.6063 199.835 68.3459C199.835 67.0855 200.286 66.079 201.189 65.3265C202.111 64.5552 203.324 64.1695 204.829 64.1695C206.353 64.1695 207.567 64.5552 208.47 65.3265C209.391 66.079 209.852 67.0855 209.852 68.3459C209.852 69.6063 209.391 70.6316 208.47 71.4217C207.567 72.1931 206.353 72.5787 204.829 72.5787Z" fill="#0D0D0D"/>
<path d="M226.156 79.2948C224.858 79.2948 223.842 79.624 223.108 80.2824C222.394 80.922 222.036 81.7404 222.036 82.7374C222.036 83.3582 222.168 83.9226 222.431 84.4306C222.713 84.9197 223.24 85.3712 224.011 85.7851C224.783 86.1989 225.911 86.5846 227.398 86.942C230.295 87.544 232.533 88.2965 234.114 89.1995C235.694 90.1025 236.794 91.1466 237.415 92.3318C238.036 93.4982 238.346 94.8056 238.346 96.2542C238.346 98.8691 237.425 100.957 235.581 102.519C233.737 104.061 231.057 104.833 227.539 104.833C226.297 104.833 225.281 104.72 224.491 104.494C223.701 104.287 223.052 104.08 222.544 103.873C222.036 103.647 221.585 103.535 221.19 103.535C220.794 103.535 220.465 103.647 220.202 103.873C219.957 104.08 219.722 104.287 219.496 104.494C219.271 104.72 218.97 104.833 218.593 104.833C218.255 104.833 218.001 104.739 217.832 104.55C217.662 104.362 217.502 104.014 217.352 103.506L215.489 97.8344C215.282 97.176 215.217 96.6398 215.292 96.226C215.386 95.8121 215.64 95.5205 216.054 95.3512C216.486 95.2007 216.863 95.2101 217.182 95.3794C217.502 95.5299 217.803 95.8215 218.085 96.2542C218.932 97.7216 219.835 98.8973 220.794 99.7815C221.754 100.647 222.76 101.277 223.814 101.672C224.886 102.067 225.977 102.265 227.087 102.265C228.705 102.265 229.909 101.936 230.699 101.277C231.508 100.619 231.913 99.7439 231.913 98.6528C231.913 97.9943 231.743 97.4017 231.405 96.875C231.066 96.3294 230.436 95.8403 229.514 95.4076C228.592 94.9561 227.257 94.5328 225.507 94.1378C223.08 93.611 221.143 92.9338 219.694 92.106C218.264 91.2595 217.23 90.2436 216.59 89.0584C215.969 87.8732 215.659 86.4999 215.659 84.9385C215.659 83.3018 216.082 81.8721 216.929 80.6493C217.775 79.4264 218.951 78.4764 220.456 77.7992C221.961 77.1031 223.701 76.7551 225.676 76.7551C226.956 76.7551 227.981 76.868 228.752 77.0937C229.523 77.3194 230.154 77.5546 230.643 77.7992C231.151 78.0249 231.612 78.1378 232.025 78.1378C232.477 78.1378 232.834 78.0249 233.098 77.7992C233.361 77.5546 233.615 77.3194 233.86 77.0937C234.104 76.868 234.405 76.7551 234.763 76.7551C235.045 76.7551 235.28 76.8585 235.468 77.0655C235.675 77.2536 235.826 77.5922 235.92 78.0814L237.302 83.4711C237.434 84.1672 237.462 84.7127 237.387 85.1078C237.331 85.5029 237.086 85.7851 236.653 85.9544C236.239 86.1237 235.873 86.1049 235.553 85.8979C235.233 85.691 234.913 85.3242 234.593 84.7974C233.427 82.8033 232.101 81.3923 230.615 80.5646C229.147 79.718 227.661 79.2948 226.156 79.2948Z" fill="#0D0D0D"/>
<path d="M242.877 80.1695L241.579 79.7745C241.128 79.624 240.808 79.4547 240.62 79.2665C240.432 79.0596 240.338 78.8244 240.338 78.5611C240.338 78.1848 240.46 77.9026 240.705 77.7145C240.968 77.5076 241.316 77.4041 241.749 77.4041H243.47C243.921 77.4041 244.298 77.3195 244.599 77.1501C244.9 76.9808 245.21 76.6798 245.53 76.2471L248.606 71.9297C249.001 71.4406 249.377 71.0831 249.734 70.8574C250.092 70.6316 250.449 70.5187 250.807 70.5187C251.202 70.5187 251.512 70.641 251.738 70.8856C251.964 71.1302 252.077 71.4876 252.077 71.9579V96.0849C252.077 97.4017 252.331 98.4082 252.839 99.1043C253.365 99.8003 254.09 100.148 255.011 100.148C255.707 100.148 256.244 100.017 256.62 99.7533C257.015 99.4711 257.325 99.1513 257.551 98.7939C257.777 98.4364 257.993 98.126 258.2 97.8627C258.426 97.5805 258.708 97.43 259.047 97.4112C259.329 97.4112 259.545 97.5052 259.696 97.6933C259.865 97.8815 259.95 98.1919 259.95 98.6246C259.931 99.6969 259.573 100.694 258.877 101.616C258.2 102.538 257.25 103.29 256.027 103.873C254.804 104.438 253.412 104.72 251.851 104.72C249.443 104.72 247.552 104.118 246.179 102.914C244.824 101.691 244.147 99.8568 244.147 97.4112V81.8344C244.147 81.3453 244.044 80.9879 243.837 80.7621C243.649 80.5176 243.329 80.32 242.877 80.1695ZM248.944 80.1978V77.4041H258.285C258.717 77.4041 259.056 77.4982 259.301 77.6863C259.564 77.8556 259.696 78.1096 259.696 78.4482C259.696 78.9373 259.451 79.3512 258.962 79.6898C258.473 80.0284 257.683 80.1978 256.592 80.1978H248.944Z" fill="#0D0D0D"/>
<g clip-path="url(#clip2_27720_72305)">
<path d="M295.115 19.86C317.035 53.62 310.795 100.82 277.355 126.26C276.715 126.9 276.395 127.7 276.715 128.18C277.035 128.66 277.995 128.66 278.635 128.02C294.502 115.463 304.976 97.3203 307.915 77.3C310.955 57.14 306.475 36.66 295.115 19.86ZM293.355 114.9C297.995 118.9 307.275 115.54 311.915 106.26C306.315 103.54 298.795 107.86 293.355 114.9ZM288.395 93.94C285.355 100.18 285.355 108.02 289.995 112.18C295.435 105.14 293.835 96.5 288.395 93.94ZM301.995 100.98C307.275 104.18 315.595 99.06 318.315 89.14C312.395 87.7 305.995 93.3 301.995 100.98ZM292.875 81.78C291.115 88.5 292.715 96.18 298.155 99.06H298.315C302.155 91.22 298.795 83.22 292.875 81.78ZM307.595 86.1C313.515 88.02 320.555 81.46 321.355 71.22C315.275 70.9 309.995 77.78 307.595 86.1ZM294.955 69.14C294.475 76.02 297.675 83.06 303.595 84.98V84.82C305.835 76.5 301.195 69.46 294.955 69.14ZM320.875 52.98C314.795 54.1 310.955 61.78 310.315 70.26C316.395 71.06 322.155 63.22 320.875 52.98ZM294.635 56.34C295.595 63.22 299.915 69.3 305.995 70.1L306.155 69.94C306.635 61.46 300.715 55.38 294.635 56.34ZM291.915 43.86C293.995 50.42 299.595 55.54 305.675 54.9C304.715 46.42 297.675 41.62 291.915 43.86ZM317.035 35.22C311.435 37.46 309.035 45.62 309.835 53.94L309.995 54.42H310.155C316.075 53.62 320.075 45.3 317.195 35.7L317.035 35.22ZM286.795 31.86C290.315 37.94 296.555 41.94 302.475 40.18C299.915 32.02 292.075 28.5 286.795 31.86ZM309.675 18.42C304.555 21.78 303.915 30.58 306.475 38.9C312.395 37.14 314.955 27.54 309.675 18.42ZM279.275 20.98C284.075 26.42 291.115 29.14 296.555 26.26C292.235 18.58 283.595 16.66 279.275 20.98ZM299.115 3.06C294.635 7.54 295.915 16.5 300.235 24.02C305.515 21.14 306.155 11.22 299.115 3.06ZM276.715 0.5C279.595 8.02 285.675 13.94 293.035 16.82C293.035 9.14 284.715 0.66 276.715 0.5Z" fill="#00AA45"/>
</g>
</g>
<defs>
<clipPath id="clip0_27720_72305">
<rect width="320.711" height="128" fill="white" transform="translate(0.644531 0.5)"/>
</clipPath>
<clipPath id="clip1_27720_72305">
<rect width="44.8" height="128" fill="white" transform="translate(0.644531 0.5)"/>
</clipPath>
<clipPath id="clip2_27720_72305">
<rect width="44.8" height="128" fill="white" transform="matrix(-1 0 0 1 321.355 0.5)"/>
</clipPath>
</defs>
</svg>
